ply
format ascii 1.0
comment Created by Blender 2.76 (sub 0) - www.blender.org, source file: 'Axe and Lynx DO Spray .blend'
element vertex 375
property float x
property float y
property float z
property float nx
property float ny
property float nz
property float s
property float t
element face 284
property list uchar uint vertex_indices
end_header
0.035301 1.455062 5.132962 0.000000 0.729942 -0.683462 0.980643 0.636321
0.315953 1.427104 5.132962 0.143925 0.715598 -0.683493 0.980643 0.639224
0.277880 1.233508 5.132962 -0.029481 -0.146825 -0.988708 0.978866 0.639031
0.035301 1.257674 5.132962 0.000000 -0.149693 -0.988708 0.978865 0.636521
1.432412 -0.281084 7.748736 0.980987 -0.192938 0.020112 0.689483 0.384598
1.459783 0.000001 7.748736 0.999786 0.000000 0.020081 0.716812 0.384598
1.357485 0.000001 10.682215 0.998596 0.000000 0.052889 0.700639 0.727952
1.332080 -0.260899 10.682215 0.979797 -0.192724 0.052919 0.675343 0.727952
0.315953 1.427104 5.132962 0.143925 0.715598 -0.683493 0.924372 0.082794
0.035301 1.455062 5.132962 0.000000 0.729942 -0.683462 0.952393 0.084823
0.035301 1.440796 7.748736 0.000000 0.999786 0.020325 0.936568 0.384598
0.313201 1.413112 7.748736 0.197150 0.980132 0.020325 0.908950 0.384598
-1.375644 0.283869 5.132962 -0.715781 0.140782 -0.683950 0.245334 0.071493
-1.403286 0.000000 5.132962 -0.729484 0.000000 -0.683950 0.273805 0.070110
-1.389181 0.000000 7.748736 -0.999786 0.000000 0.020081 0.283502 0.384598
-1.361810 0.281085 7.748736 -0.980987 0.192969 0.020112 0.256101 0.384598
1.446245 0.283870 5.132962 0.715781 0.140782 -0.683950 0.755000 0.072238
1.364381 0.556830 5.132962 0.675130 0.276528 -0.683889 0.783383 0.073741
1.351350 0.551370 7.748736 0.925169 0.378948 0.020112 0.771600 0.384598
1.432411 0.281087 7.748736 0.980987 0.192969 0.020112 0.744192 0.384598
0.035301 -1.455062 5.132962 0.000000 -0.729942 -0.683462 0.500374 0.065255
0.315955 -1.427104 5.132962 0.143925 -0.715598 -0.683493 0.528504 0.065393
0.313204 -1.413112 7.748736 0.197150 -0.980132 0.020325 0.527066 0.384598
0.035301 -1.440796 7.748736 0.000000 -0.999786 0.020325 0.500202 0.384598
-0.245354 1.427104 5.132962 -0.143925 0.715598 -0.683493 0.075673 0.082123
-0.515223 1.344302 5.132962 -0.281961 0.673208 -0.683523 0.103794 0.080133
-0.509825 1.331122 7.748736 -0.386242 0.922147 0.020295 0.118763 0.384598
-0.242602 1.413112 7.748736 -0.197150 0.980132 0.020325 0.091190 0.384598
-1.293780 -0.556828 5.132962 -0.675130 -0.276528 -0.683889 0.330785 0.067927
-1.160840 -0.808389 5.132962 -0.608753 -0.402234 -0.683798 0.359208 0.067071
-1.149113 -0.800463 7.748736 -0.834132 -0.551164 0.020173 0.365336 0.384598
-1.280749 -0.551369 7.748736 -0.925169 -0.378948 0.020112 0.338133 0.384598
0.834535 1.209841 5.132962 0.408582 0.604724 -0.683615 0.868170 0.078913
0.585822 1.344303 5.132962 0.281961 0.673208 -0.683523 0.896297 0.080819
0.580424 1.331123 7.748736 0.386242 0.922147 0.020295 0.881406 0.384598
0.826699 1.197979 7.748736 0.559709 0.828394 0.020234 0.853919 0.384598
1.052536 -1.028884 5.132962 0.518845 -0.513108 -0.683706 0.613094 0.066793
1.231442 -0.808388 5.132962 0.608753 -0.402234 -0.683798 0.641400 0.067582
1.219715 -0.800463 7.748736 0.834132 -0.551164 0.020173 0.635031 0.384598
1.042562 -1.018796 7.748736 0.710868 -0.702994 0.020203 0.607927 0.384598
-0.981934 -1.028884 5.132962 -0.518845 -0.513108 -0.683706 0.387564 0.066377
-0.971960 -1.018797 7.748736 -0.710868 -0.702994 0.020203 0.392453 0.384598
-0.515222 -1.344302 5.132962 -0.281961 -0.673208 -0.683523 0.444072 0.065483
-0.245353 -1.427104 5.132962 -0.143925 -0.715598 -0.683493 0.472240 0.065286
-0.242602 -1.413112 7.748736 -0.197150 -0.980132 0.020325 0.473337 0.384598
-0.509825 -1.331122 7.748736 -0.386242 -0.922147 0.020295 0.446439 0.384598
-1.160840 0.808389 5.132962 -0.608753 0.402234 -0.683798 0.188518 0.074638
-1.293780 0.556828 5.132962 -0.675130 0.276528 -0.683889 0.216898 0.073006
-1.280749 0.551369 7.748736 -0.925169 0.378948 0.020112 0.228671 0.384598
-1.149113 0.800463 7.748736 -0.834132 0.551164 0.020173 0.201222 0.384598
1.473887 0.000001 5.132962 0.729484 0.000000 -0.683950 0.726584 0.070863
0.585824 -1.344302 5.132962 0.281961 -0.673208 -0.683523 0.556654 0.065697
0.834537 -1.209840 5.132962 0.408582 -0.604724 -0.683615 0.584847 0.066164
0.826701 -1.197978 7.748736 0.559709 -0.828394 0.020234 0.580907 0.384598
0.580427 -1.331122 7.748736 0.386242 -0.922147 0.020295 0.553960 0.384598
-1.375644 -0.283868 5.132962 -0.715781 -0.140782 -0.683950 0.302311 0.068942
-1.361810 -0.281085 7.748736 -0.980987 -0.192969 0.020112 0.310851 0.384598
0.035301 1.455062 5.132962 0.000000 0.729942 -0.683462 0.047606 0.084166
0.035301 1.440796 7.748736 0.000000 0.999786 0.020325 0.063542 0.384598
1.052534 1.028886 5.132962 0.518845 0.513108 -0.683706 0.839977 0.077089
1.042560 1.018798 7.748736 0.710868 0.702994 0.020203 0.826463 0.384598
-0.763935 -1.209840 5.132962 -0.408582 -0.604724 -0.683615 0.415851 0.065847
-0.756099 -1.197978 7.748736 -0.559709 -0.828394 0.020234 0.419484 0.384598
-0.981934 1.028884 5.132962 -0.518845 0.513108 -0.683706 0.160206 0.076377
-0.971960 1.018797 7.748736 -0.710868 0.702994 0.020203 0.173759 0.384598
1.364382 -0.556827 5.132962 0.675130 -0.276528 -0.683889 0.669760 0.068526
1.446245 -0.283867 5.132962 0.715781 -0.140782 -0.683950 0.698162 0.069622
1.351351 -0.551368 7.748736 0.925169 -0.378948 0.020112 0.662218 0.384598
1.231441 0.808391 5.132962 0.608753 0.402234 -0.683798 0.811714 0.075361
1.219713 0.800465 7.748736 0.834132 0.551164 0.020173 0.799025 0.384598
-0.763935 1.209840 5.132962 -0.408582 0.604724 -0.683615 0.131966 0.078214
-0.756099 1.197978 7.748736 -0.559709 0.828394 0.020234 0.146278 0.384598
-1.186240 -0.511773 10.682215 -0.924070 -0.378521 0.052980 0.350267 0.727952
-1.064057 -0.742980 10.682215 -0.833125 -0.550493 0.053072 0.375421 0.727952
-0.988764 -0.692094 11.953036 -0.828883 -0.547716 0.113651 0.380921 0.878345
-1.102579 -0.476723 11.953036 -0.919370 -0.376598 0.113437 0.356982 0.878345
1.134656 0.742981 10.682215 0.833125 0.550493 0.053072 0.776760 0.727952
1.256840 0.511775 10.682215 0.924070 0.378521 0.052980 0.751362 0.727952
0.541279 -1.235530 10.682215 0.385754 -0.921018 0.053407 0.549916 0.727952
0.293246 -1.311631 10.682215 0.196905 -0.978942 0.053468 0.525029 0.727952
-1.261480 -0.260900 10.682215 -0.979797 -0.192724 0.052919 0.325042 0.727952
-1.286885 0.000000 10.682215 -0.998596 0.000000 0.052889 0.299754 0.727952
-0.699267 1.111947 10.682215 -0.559038 0.827387 0.053316 0.172772 0.727952
-0.470678 1.235530 10.682215 -0.385754 0.921018 0.053407 0.147257 0.727952
0.970225 0.945635 10.682215 0.710013 0.702139 0.053194 0.802184 0.727952
0.293244 1.311632 10.682215 0.196905 0.978942 0.053468 0.878755 0.727952
0.541277 1.235531 10.682215 0.385754 0.921018 0.053407 0.853154 0.727952
1.256840 -0.511772 10.682215 0.924070 -0.378491 0.052980 0.650109 0.727952
1.134658 -0.742979 10.682215 0.833125 -0.550493 0.053072 0.624947 0.727952
-0.699266 -1.111948 10.682215 -0.559038 -0.827387 0.053316 0.425499 0.727952
-0.899626 -0.945634 10.682215 -0.710013 -0.702139 0.053194 0.400498 0.727952
-0.899626 0.945634 10.682215 -0.710013 0.702139 0.053194 0.198229 0.727952
-1.261480 0.260900 10.682215 -0.979797 0.192724 0.052919 0.274413 0.727952
-1.186240 0.511773 10.682215 -0.924070 0.378521 0.052980 0.249043 0.727952
0.313201 1.413112 7.748736 0.197150 0.980132 0.020325 0.896950 0.384598
0.035301 1.440796 7.748736 0.000000 0.999786 0.020325 0.924568 0.384598
0.035300 1.337328 10.682215 0.000000 0.998566 0.053499 0.892454 0.727952
0.293244 1.311632 10.682215 0.196905 0.978942 0.053468 0.866755 0.727952
0.035301 -1.337328 10.682215 0.000000 -0.998566 0.053499 0.500173 0.727952
1.332080 0.260901 10.682215 0.979797 0.192724 0.052919 0.725986 0.727952
-0.222645 1.311631 10.682215 -0.196905 0.978942 0.053468 0.121653 0.727952
0.769865 1.111948 10.682215 0.559038 0.827387 0.053316 0.827640 0.727952
0.970227 -0.945633 10.682215 0.710013 -0.702139 0.053194 0.599862 0.727952
-0.222645 -1.311632 10.682215 -0.196905 -0.978942 0.053468 0.475318 0.727952
-0.470678 -1.235530 10.682215 -0.385754 -0.921018 0.053407 0.450434 0.727952
-1.064057 0.742980 10.682215 -0.833125 0.550493 0.053072 0.223649 0.727952
0.035301 1.440796 7.748736 0.000000 0.999786 0.020325 0.081542 0.384598
-0.242602 1.413112 7.748736 -0.197150 0.980132 0.020325 0.109190 0.384598
-0.222645 1.311631 10.682215 -0.196905 0.978942 0.053468 0.139653 0.727952
0.035300 1.337328 10.682215 0.000000 0.998566 0.053499 0.113949 0.727952
0.769868 -1.111947 10.682215 0.559038 -0.827387 0.053316 0.574855 0.727952
0.906194 0.880870 11.953036 0.706381 0.698569 0.113865 0.787288 0.878345
0.719556 1.035793 11.953036 0.556169 0.823176 0.114109 0.811214 0.878345
0.654579 0.937433 12.694348 0.400922 0.593310 0.697989 0.799793 0.943803
0.823493 0.797222 12.694348 0.509262 0.503586 0.697836 0.777206 0.943803
-0.436025 1.150911 11.953036 -0.383770 0.916288 0.114322 0.165417 0.878345
-0.204979 1.221800 11.953036 -0.195868 0.973907 0.114475 0.165353 0.878345
0.506623 1.150911 11.953036 0.383770 0.916288 0.114322 0.835159 0.878345
1.059364 -0.692093 11.953036 0.828883 -0.547716 0.113651 0.619398 0.878345
0.906195 -0.880868 11.953036 0.706381 -0.698569 0.113865 0.595461 0.878345
-0.835595 -0.880869 11.953036 -0.706381 -0.698569 0.113865 0.404824 0.878345
-0.204979 -1.221800 11.953036 -0.195868 -0.973907 0.114475 0.476316 0.878345
-0.436025 -1.150911 11.953036 -0.383770 -0.916288 0.114322 0.452514 0.878345
-1.102579 0.476723 11.953036 -0.919370 0.376598 0.113437 0.261116 0.878345
-0.988764 0.692094 11.953036 -0.828883 0.547716 0.113651 0.237175 0.878345
0.035301 -1.245737 11.953036 0.000000 -0.993408 0.114505 0.500111 0.878345
1.243265 0.243032 11.953036 0.974853 0.191748 0.113285 0.715389 0.878345
1.266931 0.000001 11.953036 0.993561 0.000000 0.113254 0.691379 0.878345
-1.172666 -0.243031 11.953036 -0.974853 -0.191748 0.113285 0.333021 0.878345
-0.204979 1.221800 11.953036 -0.195868 0.973907 0.114475 0.159414 0.878345
0.035300 1.245737 11.953036 0.000000 0.993408 0.114505 0.135277 0.878345
0.719558 -1.035792 11.953036 0.556169 -0.823176 0.114109 0.571570 0.878345
0.506625 -1.150910 11.953036 0.383770 -0.916288 0.114322 0.547723 0.878345
-0.648957 -1.035792 11.953036 -0.556169 -0.823176 0.114109 0.428687 0.878345
-0.835595 0.880869 11.953036 -0.706381 0.698569 0.113865 0.213257 0.878345
1.243266 -0.243030 11.953036 0.974853 -0.191748 0.113285 0.667375 0.878345
1.173179 -0.476722 11.953036 0.919370 -0.376598 0.113437 0.643374 0.878345
-1.196331 0.000000 11.953036 -0.993561 0.000000 0.113254 0.309055 0.878345
1.059363 0.692095 11.953036 0.828883 0.547716 0.113651 0.763348 0.878345
1.173178 0.476724 11.953036 0.919370 0.376598 0.113437 0.739383 0.878345
0.275580 -1.221800 11.953036 0.195868 -0.973907 0.114475 0.523909 0.878345
-0.648957 1.035792 11.953036 -0.556169 0.823176 0.114109 0.189347 0.878345
0.275578 1.221800 11.953036 0.195868 0.973907 0.114475 0.859172 0.878345
-1.172665 0.243031 11.953036 -0.974853 0.191748 0.113285 0.285080 0.878345
0.035300 1.245737 11.953036 0.000000 0.993408 0.114505 0.871319 0.878345
0.275578 1.221800 11.953036 0.195868 0.973907 0.114475 0.847172 0.878345
0.962117 0.626374 12.694348 0.597674 0.394879 0.697714 0.115779 0.962810
0.823493 0.797222 12.694348 0.509262 0.503586 0.697836 0.108220 0.972933
0.449215 0.418657 12.764950 0.049776 0.049165 0.997528 0.088294 0.949845
0.522013 0.328937 12.764950 0.058504 0.038606 0.997528 0.092242 0.944553
0.823494 -0.797220 12.694348 0.509262 -0.503586 0.697836 0.592725 0.943803
0.654580 -0.937432 12.694348 0.400922 -0.593310 0.697989 0.569521 0.943803
-0.391267 -1.041619 12.694348 -0.276620 -0.660360 0.698111 0.453730 0.936778
-0.583980 -0.937433 12.694348 -0.400922 -0.593310 0.697989 0.430591 0.936778
-0.891518 0.626372 12.694348 -0.597674 0.394879 0.697714 0.246192 0.933265
-0.752894 0.797221 12.694348 -0.509262 0.503586 0.697836 0.223485 0.933265
1.128556 -0.219952 12.694348 0.703085 -0.138279 0.697501 0.662415 0.969565
1.065125 -0.431452 12.694348 0.663015 -0.271554 0.697592 0.639188 0.969565
1.149974 0.000001 12.694348 0.716575 0.000000 0.697470 0.685556 0.969565
0.461868 -1.041619 12.694348 0.276620 -0.660360 0.698111 0.546341 0.969565
0.252763 -1.105777 12.694348 0.141179 -0.701834 0.698202 0.523178 0.969565
-1.057956 -0.219953 12.694348 -0.703085 -0.138279 0.697501 0.338032 0.969565
-1.079375 0.000000 12.694348 -0.716575 0.000000 0.697470 0.314966 0.969565
0.962117 0.626374 12.694348 0.597674 0.394879 0.697714 0.754472 0.969565
1.065124 0.431454 12.694348 0.663015 0.271554 0.697592 0.731603 0.969565
-0.583980 0.937433 12.694348 -0.400922 0.593310 0.697989 0.200921 0.969565
-0.391268 1.041619 12.694348 -0.276620 0.660360 0.698111 0.178507 0.969565
0.962117 0.626374 12.694348 0.597674 0.394879 0.697714 0.754472 0.943803
0.252760 1.105777 12.694348 0.141179 0.701834 0.698202 0.844498 0.969565
0.461866 1.041620 12.694348 0.276620 0.660360 0.698111 0.822224 0.969565
-0.752894 -0.797221 12.694348 -0.509262 -0.503586 0.697836 0.407445 0.936778
-0.583980 0.937433 12.694348 -0.400922 0.593310 0.697989 0.200921 0.933265
0.962118 -0.626372 12.694348 0.597674 -0.394879 0.697714 0.615951 0.969565
-1.057956 0.219953 12.694348 -0.703085 0.138279 0.697501 0.291959 0.933265
-0.994525 0.431453 12.694348 -0.663015 0.271554 0.697592 0.269024 0.933265
0.035300 1.245737 11.953036 0.000000 0.993408 0.114505 0.883319 0.878345
0.035300 1.127441 12.694348 0.000000 0.715842 0.698202 0.866620 0.969565
-1.057956 0.219953 12.694348 -0.703085 0.138279 0.697501 0.291959 0.969565
1.128556 0.219954 12.694348 0.703085 0.138279 0.697501 0.708622 0.969565
0.035300 -1.127441 12.694348 0.000000 -0.715873 0.698202 0.500019 0.969565
-0.182162 1.105777 12.694348 -0.141179 0.701834 0.698202 0.180185 0.969565
-0.891518 -0.626372 12.694348 -0.597674 -0.394879 0.697714 0.384295 0.969565
-0.994525 -0.431453 12.694348 -0.663015 -0.271554 0.697592 0.361150 0.969565
0.654579 0.937433 12.694348 0.400922 0.593310 0.697989 0.799793 0.969565
0.962118 -0.626372 12.694348 0.597674 -0.394879 0.697714 0.615951 0.943803
-0.891518 -0.626372 12.694348 -0.597674 -0.394879 0.697714 0.384295 0.936778
-0.182162 -1.105777 12.694348 -0.141179 -0.701834 0.698202 0.476868 0.936778
-0.182162 -1.105777 12.694348 -0.141179 -0.701834 0.698202 0.476868 0.969565
0.461868 -1.041619 12.694348 0.276620 -0.660360 0.698111 0.546341 0.943803
0.035300 1.245737 11.953036 0.000000 0.993408 0.114505 0.141215 0.878345
0.035300 1.127441 12.694348 0.000000 0.715842 0.698202 0.158074 0.969565
0.149498 0.580693 12.764950 0.013733 0.068270 0.997559 0.072183 0.959275
0.035300 0.592070 12.764950 0.000000 0.069613 0.997559 0.066078 0.959866
-0.078899 0.580693 12.764950 -0.013733 0.068270 0.997559 0.059988 0.959101
-0.188710 0.547001 12.764950 -0.026948 0.064302 0.997559 0.054149 0.957009
-0.289912 0.492288 12.764950 -0.039125 0.057833 0.997528 0.048783 0.953671
-0.378616 0.418657 12.764950 -0.049776 0.049165 0.997528 0.044098 0.949215
-0.451414 0.328936 12.764950 -0.058504 0.038606 0.997528 0.040273 0.943812
-0.505508 0.226575 12.764950 -0.064974 0.026582 0.997528 0.037455 0.937670
-0.538818 0.115507 12.764950 -0.068972 0.013520 0.997497 0.035754 0.931025
-0.550066 0.000000 12.764950 -0.070315 0.000000 0.997497 0.035234 0.924132
-0.538818 -0.115507 12.764950 -0.068972 -0.013520 0.997497 0.035911 0.917256
-0.505508 -0.226575 12.764950 -0.064974 -0.026582 0.997528 0.037764 0.910661
-0.451414 -0.328936 12.764950 -0.058504 -0.038606 0.997528 0.040721 0.904601
-0.378616 -0.418657 12.764950 -0.049776 -0.049165 0.997528 0.044669 0.899309
-0.289912 -0.492288 12.764950 -0.039125 -0.057833 0.997528 0.049455 0.894988
-0.188710 -0.547001 12.764950 -0.026948 -0.064302 0.997559 0.054895 0.891804
-0.078899 -0.580693 12.764950 -0.013733 -0.068270 0.997559 0.060780 0.889879
0.035300 -0.592070 12.764950 0.000000 -0.069613 0.997559 0.066885 0.889288
0.149499 -0.580693 12.764950 0.013733 -0.068270 0.997559 0.072975 0.890053
0.259310 -0.547001 12.764950 0.026948 -0.064302 0.997559 0.078814 0.892144
0.360512 -0.492288 12.764950 0.039125 -0.057833 0.997528 0.084180 0.895483
0.449216 -0.418656 12.764950 0.049776 -0.049165 0.997528 0.088865 0.899939
0.522014 -0.328936 12.764950 0.058504 -0.038606 0.997528 0.092690 0.905342
0.576108 -0.226575 12.764950 0.064974 -0.026582 0.997528 0.095508 0.911484
0.609418 -0.115507 12.764950 0.068972 -0.013520 0.997497 0.097210 0.918129
0.620666 0.000001 12.764950 0.070315 0.000000 0.997497 0.097729 0.925022
0.609418 0.115508 12.764950 0.068972 0.013520 0.997497 0.097052 0.931898
0.576107 0.226576 12.764950 0.064974 0.026582 0.997528 0.095199 0.938493
0.360511 0.492288 12.764950 0.039125 0.057833 0.997528 0.083509 0.954166
0.259309 0.547001 12.764950 0.026948 0.064302 0.997559 0.078068 0.957350
0.461866 1.041620 12.694348 0.276620 0.660360 0.698111 0.088646 0.987283
0.252760 1.105777 12.694348 0.141179 0.701834 0.698202 0.077385 0.990960
-0.752894 -0.797221 12.694348 -0.509262 -0.503586 0.697836 0.024743 0.876220
-0.583980 -0.937433 12.694348 -0.400922 -0.593310 0.697989 0.033906 0.867957
-0.583980 0.937433 12.694348 -0.400922 0.593310 0.697989 0.032621 0.980250
-0.752894 0.797221 12.694348 -0.509262 0.503586 0.697836 0.023651 0.971728
0.962118 -0.626372 12.694348 0.597674 -0.394879 0.697714 0.116638 0.887761
1.065125 -0.431452 12.694348 0.663015 -0.271554 0.697592 0.122036 0.899514
-0.994525 0.431453 12.694348 -0.663015 0.271554 0.697592 0.010927 0.949640
-1.057956 0.219953 12.694348 -0.703085 0.138279 0.697501 0.007664 0.936921
0.035300 1.127441 12.694348 0.000000 0.715842 0.698202 0.065709 0.992088
0.035300 -1.127441 12.694348 0.000000 -0.715873 0.698202 0.067254 0.857066
0.252763 -1.105777 12.694348 0.141179 -0.701834 0.698202 0.078901 0.858526
-1.079375 0.000000 12.694348 -0.716575 0.000000 0.697470 0.006663 0.923724
1.128556 0.219954 12.694348 0.703085 0.138279 0.697501 0.124998 0.938593
1.065124 0.431454 12.694348 0.663015 0.271554 0.697592 0.121445 0.951215
-0.994525 -0.431453 12.694348 -0.663015 -0.271554 0.697592 0.011518 0.897939
-0.891518 -0.626372 12.694348 -0.597674 -0.394879 0.697714 0.017184 0.886344
-0.182162 1.105777 12.694348 -0.141179 0.701834 0.698202 0.054063 0.990627
-0.391268 1.041619 12.694348 -0.276620 0.660360 0.698111 0.042890 0.986631
0.654579 0.937433 12.694348 0.400922 0.593310 0.697989 0.099058 0.981196
0.823494 -0.797220 12.694348 0.509262 -0.503586 0.697836 0.109312 0.877426
-0.891518 0.626372 12.694348 -0.597674 0.394879 0.697714 0.016325 0.961393
-0.391267 -1.041619 12.694348 -0.276620 -0.660360 0.698111 0.044317 0.861871
-0.182162 -1.105777 12.694348 -0.141179 -0.701834 0.698202 0.055578 0.858194
1.149974 0.000001 12.694348 0.716575 0.000000 0.697470 0.126300 0.925429
0.461868 -1.041619 12.694348 0.276620 -0.660360 0.698111 0.090073 0.862523
0.654580 -0.937432 12.694348 0.400922 -0.593310 0.697989 0.100342 0.868904
-1.057956 -0.219953 12.694348 -0.703085 -0.138279 0.697501 0.007965 0.910561
1.128556 -0.219952 12.694348 0.703085 -0.138279 0.697501 0.125299 0.912233
-0.440540 -1.161939 5.132962 0.057863 0.138340 -0.988678 0.894022 0.914401
-0.655514 -1.045717 5.132962 0.084048 0.124546 -0.988617 0.897600 0.904649
-0.364178 -0.604709 5.309017 0.095157 0.140660 -0.985443 0.916042 0.915682
-0.239865 -0.671917 5.309017 0.065584 0.156377 -0.985504 0.914015 0.921168
-1.403286 0.000000 5.132962 -0.729484 0.000000 -0.683950 0.966235 0.623017
-1.375644 0.283869 5.132962 -0.715781 0.140782 -0.683950 0.968828 0.623014
-1.184240 0.245360 5.132962 0.148564 -0.029237 -0.988464 0.968650 0.625022
-1.208132 0.000000 5.132962 0.151494 0.000000 -0.988433 0.966409 0.625024
1.364381 0.556830 5.132962 0.675130 0.276528 -0.683889 0.973743 0.650881
1.446245 0.283870 5.132962 0.715781 0.140782 -0.683950 0.971348 0.652004
1.254841 0.245361 5.132962 -0.148564 -0.029237 -0.988464 0.970828 0.650075
1.184082 0.481292 5.132962 -0.139927 -0.057375 -0.988495 0.972898 0.649105
0.315955 -1.427104 5.132962 0.143925 -0.715598 -0.683493 0.954896 0.642121
0.035301 -1.455062 5.132962 0.000000 -0.729942 -0.683462 0.954396 0.639275
0.035301 -1.257674 5.132962 0.000000 0.149693 -0.988708 0.956174 0.639075
0.277883 -1.233508 5.132962 -0.029481 0.146825 -0.988708 0.956605 0.641536
-0.515223 1.344302 5.132962 -0.281961 0.673208 -0.683523 0.979161 0.630792
-0.245354 1.427104 5.132962 -0.143925 0.715598 -0.683493 0.980143 0.633475
-0.207281 1.233508 5.132962 0.029481 -0.146825 -0.988708 0.978434 0.634060
-0.440541 1.161939 5.132962 0.057863 -0.138340 -0.988678 0.977583 0.631741
-1.160840 -0.808389 5.132962 -0.608753 -0.402234 -0.683798 0.959144 0.626343
-1.293780 -0.556828 5.132962 -0.675130 -0.276528 -0.683889 0.961296 0.624716
-1.113482 -0.481291 5.132962 0.139927 0.057375 -0.988495 0.962142 0.626492
-0.998576 -0.698726 5.132962 0.125889 0.083285 -0.988525 0.960281 0.627897
0.585822 1.344303 5.132962 0.281961 0.673208 -0.683523 0.980142 0.642073
0.834535 1.209841 5.132962 0.408582 0.604724 -0.683615 0.979156 0.644763
0.726113 1.045718 5.132962 -0.084048 -0.124546 -0.988617 0.977578 0.643819
0.511140 1.161940 5.132962 -0.057863 -0.138340 -0.988678 0.978432 0.641495
1.231442 -0.808388 5.132962 0.608753 -0.402234 -0.683798 0.961279 0.650898
1.052536 -1.028884 5.132962 0.518845 -0.513108 -0.683706 0.959131 0.649279
0.914541 -0.889309 5.132962 -0.106998 0.105960 -0.988586 0.960269 0.647723
1.069178 -0.698725 5.132962 -0.125889 0.083285 -0.988525 0.962126 0.649121
-0.981934 -1.028884 5.132962 -0.518845 -0.513108 -0.683706 0.957317 0.628409
-0.843939 -0.889310 5.132962 0.106998 0.105960 -0.988586 0.958701 0.629682
-0.245353 -1.427104 5.132962 -0.143925 -0.715598 -0.683493 0.954396 0.636372
-0.515222 -1.344302 5.132962 -0.281961 -0.673208 -0.683523 0.954898 0.633523
-0.440540 -1.161939 5.132962 0.057863 0.138340 -0.988678 0.956608 0.634101
-0.207281 -1.233508 5.132962 0.029481 0.146825 -0.988708 0.956173 0.636565
-1.293780 0.556828 5.132962 -0.675130 0.276528 -0.683889 0.971369 0.623582
-1.160840 0.808389 5.132962 -0.608753 0.402234 -0.683798 0.973760 0.624698
-0.998576 0.698726 5.132962 0.125889 -0.083285 -0.988525 0.972913 0.626475
-1.113482 0.481291 5.132962 0.139927 -0.057375 -0.988495 0.970846 0.625512
1.473887 0.000001 5.132962 0.729484 0.000000 -0.683950 0.968805 0.652579
1.278733 0.000001 5.132962 -0.151494 0.000000 -0.988433 0.968630 0.650572
0.834537 -1.209840 5.132962 0.408582 -0.604724 -0.683615 0.957308 0.647221
0.585824 -1.344302 5.132962 0.281961 -0.673208 -0.683523 0.955878 0.644804
0.511142 -1.161939 5.132962 -0.057863 0.138340 -0.988678 0.957456 0.643855
0.726116 -1.045717 5.132962 -0.084048 0.124546 -0.988617 0.958692 0.645944
-1.375644 -0.283868 5.132962 -0.715781 -0.140782 -0.683950 0.963691 0.623592
-1.184240 -0.245360 5.132962 0.148564 0.029237 -0.988464 0.964211 0.625521
1.052534 1.028886 5.132962 0.518845 0.513108 -0.683706 0.977722 0.647187
0.914539 0.889311 5.132962 -0.106998 -0.105960 -0.988586 0.976338 0.645914
-0.763935 -1.209840 5.132962 -0.408582 -0.604724 -0.683615 0.955883 0.630834
-0.655514 -1.045717 5.132962 0.084048 0.124546 -0.988617 0.957461 0.631777
-0.981934 1.028884 5.132962 -0.518845 0.513108 -0.683706 0.975908 0.626317
-0.843939 0.889310 5.132962 0.106998 -0.105960 -0.988586 0.974770 0.627873
1.446245 -0.283867 5.132962 0.715781 -0.140782 -0.683950 0.966211 0.652582
1.364382 -0.556827 5.132962 0.675130 -0.276528 -0.683889 0.963670 0.652014
1.184083 -0.481290 5.132962 -0.139927 0.057375 -0.988495 0.964193 0.650084
1.254841 -0.245359 5.132962 -0.148564 0.029237 -0.988464 0.966389 0.650574
1.231441 0.808391 5.132962 0.608753 0.402234 -0.683798 0.975895 0.649253
1.069176 0.698727 5.132962 -0.125889 -0.083285 -0.988525 0.974758 0.647699
-0.763935 1.209840 5.132962 -0.408582 0.604724 -0.683615 0.977731 0.628375
-0.655514 1.045717 5.132962 0.084048 -0.124546 -0.988617 0.976347 0.629652
-0.104978 0.713303 5.309017 0.033448 -0.166051 -0.985534 0.965601 0.921070
0.035301 0.727277 5.309017 0.000000 -0.169347 -0.985534 0.966628 0.926892
0.175578 0.713303 5.309017 -0.033448 -0.166051 -0.985534 0.966623 0.932830
0.310465 0.671917 5.309017 -0.065584 -0.156377 -0.985504 0.965588 0.938653
0.434778 0.604709 5.309017 -0.095157 -0.140660 -0.985443 0.963561 0.944140
0.543740 0.514263 5.309017 -0.121036 -0.119541 -0.985412 0.960622 0.949079
0.633162 0.404054 5.309017 -0.142247 -0.093844 -0.985351 0.956883 0.953281
0.699609 0.278318 5.309017 -0.157964 -0.064608 -0.985321 0.952486 0.956583
0.740526 0.141886 5.309017 -0.167638 -0.032929 -0.985290 0.947602 0.958857
0.754343 0.000001 5.309017 -0.170904 0.000000 -0.985260 0.942418 0.960015
0.740527 -0.141884 5.309017 -0.167638 0.032929 -0.985290 0.937135 0.960035
0.699609 -0.278316 5.309017 -0.157964 0.064608 -0.985321 0.931954 0.958894
0.633163 -0.404053 5.309017 -0.142247 0.093844 -0.985351 0.927075 0.956635
0.543741 -0.514262 5.309017 -0.121036 0.119541 -0.985412 0.922684 0.953348
0.434779 -0.604709 5.309017 -0.095157 0.140660 -0.985443 0.918952 0.949160
0.310466 -0.671916 5.309017 -0.065584 0.156377 -0.985504 0.916020 0.944232
0.175579 -0.713303 5.309017 -0.033448 0.166051 -0.985534 0.914002 0.938752
0.035301 -0.727277 5.309017 0.000000 0.169347 -0.985534 0.912975 0.932930
-0.104977 -0.713303 5.309017 0.033448 0.166051 -0.985534 0.912979 0.926992
-0.473139 -0.514263 5.309017 0.121036 0.119541 -0.985412 0.918981 0.910743
-0.562561 -0.404054 5.309017 0.142247 0.093844 -0.985351 0.922721 0.906541
-0.629008 -0.278317 5.309017 0.157964 0.064608 -0.985321 0.927117 0.903238
-0.669925 -0.141885 5.309017 0.167638 0.032929 -0.985290 0.932001 0.900963
-0.683742 0.000000 5.309017 0.170904 0.000000 -0.985260 0.937185 0.899807
-0.669925 0.141885 5.309017 0.167638 -0.032929 -0.985290 0.942467 0.899786
-0.629008 0.278317 5.309017 0.157964 -0.064608 -0.985321 0.947648 0.900927
-0.562561 0.404054 5.309017 0.142247 -0.093844 -0.985351 0.952527 0.903186
-0.473139 0.514263 5.309017 0.121036 -0.119541 -0.985412 0.956918 0.906474
-0.364178 0.604709 5.309017 0.095157 -0.140660 -0.985443 0.960651 0.910662
-0.239865 0.671917 5.309017 0.065584 -0.156377 -0.985504 0.963582 0.915590
-0.998576 0.698726 5.132962 0.125889 -0.083285 -0.988525 0.962428 0.882407
-0.843939 0.889310 5.132962 0.106998 -0.105960 -0.988586 0.970219 0.888273
1.254841 -0.245359 5.132962 -0.148564 0.029237 -0.988464 0.935057 0.983513
1.184083 -0.481290 5.132962 -0.139927 0.057375 -0.988495 0.925843 0.981456
1.278733 0.000001 5.132962 -0.151494 0.000000 -0.988433 0.944460 0.983504
-1.184240 -0.245360 5.132962 0.148564 0.029237 -0.988464 0.925920 0.878405
-1.208132 0.000000 5.132962 0.151494 0.000000 -0.988433 0.935142 0.876317
1.069176 0.698727 5.132962 -0.125889 -0.083285 -0.988525 0.970169 0.971452
1.184082 0.481292 5.132962 -0.139927 -0.057375 -0.988495 0.962364 0.977346
0.511142 -1.161939 5.132962 -0.057863 0.138340 -0.988678 0.897579 0.955323
0.277883 -1.233508 5.132962 -0.029481 0.146825 -0.988708 0.894012 0.945592
-0.655514 1.045717 5.132962 0.084048 -0.124546 -0.988617 0.976835 0.895733
-0.440541 1.161939 5.132962 0.057863 -0.138340 -0.988678 0.982023 0.904498
0.914539 0.889311 5.132962 -0.106998 -0.105960 -0.988586 0.976800 0.963963
0.277880 1.233508 5.132962 -0.029481 -0.146825 -0.988708 0.987403 0.935083
0.511140 1.161940 5.132962 -0.057863 -0.138340 -0.988678 0.985582 0.945420
1.069178 -0.698725 5.132962 -0.125889 0.083285 -0.988525 0.917174 0.977415
-0.843939 -0.889310 5.132962 0.106998 0.105960 -0.988586 0.902803 0.895859
-1.184240 0.245360 5.132962 0.148564 -0.029237 -0.988464 0.944545 0.876309
-1.113482 0.481291 5.132962 0.139927 -0.057375 -0.988495 0.953759 0.878366
0.035301 1.257674 5.132962 0.000000 -0.149693 -0.988708 0.987401 0.924554
1.254841 0.245361 5.132962 -0.148564 -0.029237 -0.988464 0.953683 0.981417
0.035301 -1.257674 5.132962 0.000000 0.149693 -0.988708 0.892202 0.935267
-0.998576 -0.698726 5.132962 0.125889 0.083285 -0.988525 0.909433 0.888370
-1.113482 -0.481291 5.132962 0.139927 0.057375 -0.988495 0.917239 0.882475
-0.207281 1.233508 5.132962 0.029481 -0.146825 -0.988708 0.985590 0.914230
0.726113 1.045718 5.132962 -0.084048 -0.124546 -0.988617 0.982002 0.955172
0.914541 -0.889309 5.132962 -0.106998 0.105960 -0.988586 0.909383 0.971549
-0.207281 -1.233508 5.132962 0.029481 0.146825 -0.988708 0.892199 0.924739
0.726116 -1.045717 5.132962 -0.084048 0.124546 -0.988617 0.902768 0.964088
4 0 1 2 3
4 4 5 6 7
4 8 9 10 11
4 12 13 14 15
4 16 17 18 19
4 20 21 22 23
4 24 25 26 27
4 28 29 30 31
4 32 33 34 35
4 36 37 38 39
4 29 40 41 30
4 42 43 44 45
4 46 47 48 49
4 50 16 19 5
4 43 20 23 44
4 51 52 53 54
4 55 28 31 56
4 57 24 27 58
4 59 32 35 60
4 52 36 39 53
4 61 42 45 62
4 63 46 49 64
4 65 66 4 67
4 66 50 5 4
4 13 55 56 14
4 17 68 69 18
4 21 51 54 22
4 25 70 71 26
4 68 59 60 69
4 33 8 11 34
4 70 63 64 71
4 37 65 67 38
4 40 61 62 41
4 47 12 15 48
4 72 73 74 75
4 18 69 76 77
4 22 54 78 79
4 14 56 80 81
4 26 71 82 83
4 69 60 84 76
4 34 11 85 86
4 38 67 87 88
4 41 62 89 90
4 71 64 91 82
4 48 15 92 93
4 94 95 96 97
4 23 22 79 98
4 15 14 81 92
4 19 18 77 99
4 31 30 73 72
4 27 26 83 100
4 35 34 86 101
4 39 38 88 102
4 30 41 90 73
4 45 44 103 104
4 49 48 93 105
4 44 23 98 103
4 5 19 99 6
4 56 31 72 80
4 106 107 108 109
4 54 53 110 78
4 60 35 101 84
4 53 39 102 110
4 64 49 105 91
4 67 4 7 87
4 62 45 104 89
4 111 112 113 114
4 100 83 115 116
4 101 86 117 112
4 102 88 118 119
4 73 90 120 74
4 104 103 121 122
4 105 93 123 124
4 103 98 125 121
4 6 99 126 127
4 80 72 75 128
4 109 108 129 130
4 78 110 131 132
4 84 101 112 111
4 110 102 119 131
4 89 104 122 133
4 91 105 124 134
4 87 7 135 136
4 7 6 127 135
4 81 80 128 137
4 77 76 138 139
4 79 78 132 140
4 83 82 141 115
4 76 84 111 138
4 86 85 142 117
4 82 91 134 141
4 88 87 136 118
4 90 89 133 120
4 93 92 143 123
4 97 96 144 145
4 99 77 139 126
4 98 79 140 125
4 92 81 137 143
4 146 147 148 149
4 131 119 150 151
4 133 122 152 153
4 134 124 154 155
4 136 135 156 157
4 135 127 158 156
4 140 132 159 160
4 137 128 161 162
4 139 138 163 164
4 115 141 165 166
4 138 111 114 167
4 117 142 168 169
4 120 133 153 170
4 141 134 155 171
4 118 136 157 172
4 123 143 173 174
4 142 175 176 168
4 143 137 162 177
4 126 139 164 178
4 125 140 160 179
4 116 115 166 180
4 75 74 181 182
4 112 117 169 183
4 119 118 184 150
4 74 120 170 185
4 122 121 186 152
4 124 123 174 154
4 127 126 178 158
4 121 125 179 187
4 132 131 151 188
4 128 75 182 161
4 189 116 180 190
3 191 192 193
3 193 194 195
3 195 196 197
3 197 198 199
3 199 200 201
3 201 202 203
3 203 204 205
3 205 206 207
3 207 208 209
3 209 210 211
3 211 212 213
3 213 214 215
3 215 216 217
3 217 218 149
3 149 148 219
3 219 220 191
3 191 193 195
3 195 197 199
3 199 201 203
3 203 205 207
3 207 209 211
3 211 213 215
3 215 217 149
3 149 219 191
3 191 195 199
3 199 203 207
3 207 211 215
3 215 149 191
3 191 199 207
3 207 215 191
4 221 222 191 220
4 223 224 205 204
4 225 226 196 195
4 227 228 214 213
4 229 230 199 198
4 222 231 192 191
4 232 233 209 208
4 230 234 200 199
4 235 236 218 217
4 237 238 203 202
4 239 240 194 193
4 241 221 220 219
4 238 223 204 203
4 242 227 213 212
4 243 229 198 197
4 244 245 207 206
4 246 235 217 216
4 245 232 208 207
4 231 239 193 192
4 247 248 211 210
4 249 237 202 201
4 147 241 219 148
4 248 242 212 211
4 228 250 215 214
4 224 244 206 205
4 226 243 197 196
4 250 246 216 215
4 233 247 210 209
4 234 249 201 200
4 236 146 149 218
4 240 225 195 194
4 251 252 253 254
4 255 256 257 258
4 259 260 261 262
4 263 264 265 266
4 267 268 269 270
4 271 272 273 274
4 275 276 277 278
4 279 280 281 282
4 283 271 274 284
4 285 286 287 288
4 289 290 291 292
4 260 293 294 261
4 264 285 288 265
4 295 296 297 298
4 272 299 300 273
4 268 0 3 269
4 276 301 302 277
4 280 295 298 281
4 286 303 304 287
4 290 305 306 291
4 307 308 309 310
4 293 307 310 294
4 299 255 258 300
4 311 259 262 312
4 296 263 266 297
4 313 267 270 314
4 301 311 312 302
4 1 275 278 2
4 305 313 314 306
4 308 279 282 309
4 303 283 284 304
4 256 289 292 257
3 315 316 317
3 317 318 319
3 319 320 321
3 321 322 323
3 323 324 325
3 325 326 327
3 327 328 329
3 329 330 331
3 331 332 333
3 333 254 253
3 253 334 335
3 335 336 337
3 337 338 339
3 339 340 341
3 341 342 343
3 343 344 315
3 315 317 319
3 319 321 323
3 323 325 327
3 327 329 331
3 331 333 253
3 253 335 337
3 337 339 341
3 341 343 315
3 315 319 323
3 323 327 331
3 331 253 337
3 337 341 315
3 315 323 331
3 331 337 315
4 345 346 342 341
4 347 348 326 325
4 349 347 325 324
4 350 351 338 337
4 352 353 322 321
4 354 355 331 330
4 356 357 344 343
4 358 352 321 320
4 359 360 318 317
4 346 356 343 342
4 348 361 327 326
4 252 362 334 253
4 363 364 340 339
4 365 359 317 316
4 353 366 323 322
4 355 367 332 331
4 351 363 339 338
4 368 369 336 335
4 357 370 315 344
4 360 371 319 318
4 361 372 328 327
4 362 368 335 334
4 373 251 254 333
4 364 345 341 340
4 367 373 333 332
4 366 349 324 323
4 369 350 337 336
4 370 365 316 315
4 374 354 330 329
4 371 358 320 319
4 372 374 329 328
